# xmcd
#
# Track frame offsets: 
#        150
#        12082
#        30767
#        49936
#        69361
#        86015
#        106347
#        130628
#        144205
#        161480
#        173245
#        187879
#        207473
#        236826
#        254161
#        275071
#        287340
#        311747
#
# Disc length: 4503 seconds
#
# Revision: 0
# Processed by: cddbd v1.5.2PL0 Copyright (c) Steve Scherf et al.
# Submitted via: ExactAudioCopy v0.95b3
#
DISCID=f8119512
DTITLE=Jeff Lang - Prepare Me Well - A Jeff Lang Anthology 1994 - 2006
DYEAR=2007
DGENRE=Roots
TTITLE0=The Road Is Not Your Only Friend
TTITLE1=The Save
TTITLE2=London
TTITLE3=I Still See You
TTITLE4=Too Easy To Kill
TTITLE5=Til They Cut Me Down
TTITLE6=Thousand Miles
TTITLE7=Molasses And Stone
TTITLE8=Mr God
TTITLE9=Bateman's Bay
TTITLE10=Gina
TTITLE11=Ravenswood
TTITLE12=Cedar Grove
TTITLE13=Everything Is Still
TTITLE14=Prepare Me Well
TTITLE15=You Should've Waited
TTITLE16=Elvis Is Still Dead
TTITLE17=Rain On Troy
EXTD=
EXTT0=
EXTT1=
EXTT2=
EXTT3=
EXTT4=
EXTT5=
EXTT6=
EXTT7=
EXTT8=
EXTT9=
EXTT10=
EXTT11=
EXTT12=
EXTT13=
EXTT14=
EXTT15=
EXTT16=
EXTT17=
PLAYORDER=
